<svg width="28" height="28" fill="none" xmlns="http://www.w3.org/2000/svg"><path d="M20.825 26.25H7.175c-2.887 0-5.25-2.363-5.25-5.25v-.175l.525-14C2.538 3.937 4.9 1.75 7.7 1.75h12.6c2.8 0 5.162 2.188 5.25 5.075l.525 14c.088 1.4-.438 2.713-1.4 3.762-.963 1.05-2.275 1.663-3.675 1.663h-.175zM7.7 3.5a3.477 3.477 0 00-3.5 3.325L3.675 21a3.51 3.51 0 003.5 3.5H21c.962 0 1.837-.438 2.45-1.137a3.81 3.81 0 00.963-2.538l-.526-14C23.8 4.9 22.313 3.5 20.387 3.5H7.7z" fill="#0F0F10"/><path d="M14 12.25a6.087 6.087 0 01-6.125-6.125c0-.525.35-.875.875-.875s.875.35.875.875A4.333 4.333 0 0014 10.5a4.333 4.333 0 004.375-4.375c0-.525.35-.875.875-.875s.875.35.875.875A6.087 6.087 0 0114 12.25z" fill="#0F0F10"/></svg>