<svg width="24" height="24" fill="none" xmlns="http://www.w3.org/2000/svg"><g clip-path="url(#clip0_305_2517)"><path d="M18.39 7.877a.75.75 0 010 1.06l-2.267 2.266a.747.747 0 01-1.06 0 .75.75 0 010-1.06l.986-.986H7.063a.75.75 0 010-1.5h8.986l-.986-.986a.75.75 0 111.06-1.06l2.267 2.266zm-1.91 6.966H7.95l.986-.986a.75.75 0 10-1.06-1.06L5.61 15.063a.75.75 0 000 1.06l2.266 2.267a.747.747 0 001.061 0 .75.75 0 000-1.06l-.986-.987h8.529a.75.75 0 000-1.5zM24 12c0 6.617-5.383 12-12 12S0 18.617 0 12 5.383 0 12 0s12 5.383 12 12zm-1.5 0c0-5.79-4.71-10.5-10.5-10.5S1.5 6.21 1.5 12 6.21 22.5 12 22.5 22.5 17.79 22.5 12z" fill="#5E2D9D"/></g><defs><clipPath id="clip0_305_2517"><path fill="#fff" d="M0 0h24v24H0z"/></clipPath></defs></svg>