<svg width="24" height="24" fill="none" xmlns="http://www.w3.org/2000/svg"><g clip-path="url(#clip0_305_2510)" fill="#5E2D9D"><path d="M21.488 17.844a.938.938 0 00-1.312.193c-.17.23-.351.452-.54.666a.938.938 0 001.404 1.242c.225-.254.438-.517.64-.789a.937.937 0 00-.192-1.312zm1.568-4.396a.938.938 0 00-1.116.716c-.06.28-.133.556-.218.83a.937.937 0 101.792.553c.1-.324.186-.652.258-.984a.938.938 0 00-.716-1.115zm-6.08 7.399c-.25.14-.506.268-.767.386a.938.938 0 10.772 1.709c.31-.14.612-.293.908-.458a.937.937 0 10-.914-1.637zM11.061 4.5v7.112l-3.437 3.437a.937.937 0 101.326 1.326l3.712-3.712a.937.937 0 00.274-.663V4.5a.937.937 0 10-1.875 0z"/><path d="M23.063 2.016a.937.937 0 00-.938.937v2.603A12.028 12.028 0 0012 0a11.922 11.922 0 00-8.485 3.515A11.922 11.922 0 000 12c0 3.205 1.248 6.219 3.515 8.485A11.922 11.922 0 0012 24l.023-.001.024.001c.338 0 .679-.014 1.014-.042a.937.937 0 10-.156-1.869 10.33 10.33 0 01-.858.036l-.024.001-.023-.001C6.417 22.125 1.875 17.583 1.875 12S6.417 1.875 12 1.875a10.15 10.15 0 018.716 4.969h-2.578a.937.937 0 100 1.875H21a2.982 2.982 0 001.644-.493A3 3 0 0024 5.72V2.953a.937.937 0 00-.938-.937z"/></g><defs><clipPath id="clip0_305_2510"><path fill="#fff" d="M0 0h24v24H0z"/></clipPath></defs></svg>