<svg width="24" height="24" fill="none" xmlns="http://www.w3.org/2000/svg"><g clip-path="url(#clip0_305_2500)" fill="#5E2D9D"><path d="M6.25 20a.75.75 0 01-.75-.75V5.75a.75.75 0 01.816-.747l17 1.5A.75.75 0 0124 7.25v10.5a.75.75 0 01-.684.747l-17 1.5A.808.808 0 016.25 20zM7 6.569V18.43l15.5-1.367V7.937L7 6.569z"/><path d="M6.25 20a.799.799 0 01-.197-.026l-5.5-1.5A.751.751 0 010 17.75V7.25c0-.338.227-.635.553-.724l5.5-1.5a.75.75 0 01.395 1.447L1.5 7.823v9.354l4.947 1.35A.75.75 0 016.25 20z"/><path d="M3.25 19.18a.75.75 0 01-.75-.75V6.57a.75.75 0 111.5 0v11.86a.75.75 0 01-.75.75zm6-2.18a.75.75 0 01-.75-.75v-7.5a.75.75 0 111.5 0v7.5a.75.75 0 01-.75.75zm4-.5a.75.75 0 01-.75-.75v-6.5a.75.75 0 111.5 0v6.5a.75.75 0 01-.75.75zm4-.5a.75.75 0 01-.75-.75v-5.5a.75.75 0 111.5 0v5.5a.75.75 0 01-.75.75zm3.5-.25A.75.75 0 0120 15v-4.75a.75.75 0 111.5 0V15a.75.75 0 01-.75.75z"/></g><defs><clipPath id="clip0_305_2500"><path fill="#fff" d="M0 0h24v24H0z"/></clipPath></defs></svg>