<svg width="151" height="56" fill="none" xmlns="http://www.w3.org/2000/svg"><path d="M92.196 23.094h-6.221c-.114-.805-.346-1.52-.697-2.145a5.456 5.456 0 00-1.349-1.62 5.94 5.94 0 00-1.903-1.022 7.282 7.282 0 00-2.316-.355c-1.505 0-2.817.374-3.934 1.122-1.118.738-1.984 1.818-2.6 3.238-.615 1.412-.923 3.125-.923 5.142 0 2.074.308 3.817.923 5.228.625 1.41 1.496 2.476 2.614 3.196 1.117.72 2.41 1.08 3.878 1.08.823 0 1.586-.11 2.287-.327a6.012 6.012 0 001.889-.952 5.486 5.486 0 001.363-1.548c.37-.606.625-1.298.768-2.074l6.221.028a11.257 11.257 0 01-1.207 3.864 11.613 11.613 0 01-2.571 3.31c-1.07.965-2.349 1.733-3.836 2.3-1.477.56-3.148.839-5.014.839-2.594 0-4.915-.587-6.96-1.762-2.036-1.174-3.646-2.874-4.83-5.1-1.174-2.224-1.76-4.919-1.76-8.082 0-3.172.596-5.87 1.789-8.096 1.193-2.225 2.812-3.92 4.858-5.085 2.045-1.175 4.346-1.762 6.903-1.762 1.686 0 3.248.237 4.688.71 1.449.474 2.732 1.165 3.85 2.075 1.117.9 2.026 2.002 2.726 3.31.71 1.306 1.165 2.802 1.364 4.488zM114.206 42l-9.347-12.4h-2.102V42h-6.15V12.91h6.15v11.618h1.236l9.659-11.619h7.656l-11.349 13.494L121.834 42h-7.628zm9.613-24.02v-5.07h23.892v5.07h-8.906V42h-6.08V17.98h-8.906z" fill="#0F0F10"/><path fill-rule="evenodd" clip-rule="evenodd" d="M22 55.035L7.958 46.67v-8.75L.936 33.835v-11.67l7.022-3.89V9.523L22 .966l14.043 8.557v8.752l7.02 3.89v11.67l-7.02 4.084v8.752L22 55.035zm0-16.727l6.832-4.473v-11.67L22 18.275l-6.831 3.89v11.67L22 38.308z" fill="#fff"/><path fill-rule="evenodd" clip-rule="evenodd" d="M21.612.297a.743.743 0 01.776 0L36.43 8.854c.23.14.371.395.371.67v8.287l6.624 3.67a.781.781 0 01.398.684v11.67a.78.78 0 01-.385.676l-6.637 3.861v8.3a.782.782 0 01-.377.672L22.38 55.707a.743.743 0 01-.762 0L7.576 47.344a.782.782 0 01-.378-.673v-8.299l-6.637-3.86a.782.782 0 01-.384-.677v-11.67c0-.285.153-.548.398-.684l6.623-3.67V9.523c0-.274.141-.528.371-.668L21.612.296zm-13.65 18.86l-5.488 3.04 5.488 3.345 5.637-3.344-5.637-3.04zm6.447 4.358l-5.693 3.378V36.6l5.693-3.224v-9.861zm.731 11.225l-5.67 3.21L22 45.761l12.53-7.81-5.67-3.211-6.451 4.224a.744.744 0 01-.818 0l-6.45-4.224zm14.45-1.364l5.693 3.224v-9.707l-5.693-3.378v9.86zm.811-11.178l5.636 3.344 5.489-3.345-5.488-3.04-5.637 3.04zm4.882-4.392l-5.693 3.07v-6.625l5.693-3.378v6.933zm-.74-8.292l-5.701 3.383-6.446-4.038a.743.743 0 00-.792 0l-6.446 4.038-5.7-3.383L22 1.871l12.543 7.643zM8.716 10.873l5.693 3.378v6.626l-5.693-3.071v-6.934zm7.211 9.97l5.704-3.248c.23-.13.508-.13.738 0l5.703 3.248v-6.605L22 10.435l-6.073 3.803v6.605zm12.145 1.78L22 19.165l-6.073 3.458v10.786L22 37.385l6.072-3.976V22.623zm14.233.91L36.8 26.887v9.696l5.504-3.201v-9.85zm-7.022 15.77v6.92L22 54.136 8.716 46.224v-6.921l12.89 8.033a.743.743 0 00.788 0l12.89-8.033zm-28.085-2.72v-9.696l-5.503-3.354v9.849l5.503 3.201z" fill="#5E2D9D"/></svg>