<svg width="26" height="26" fill="none" xmlns="http://www.w3.org/2000/svg"><g clip-path="url(#clip0_232_5543)"><path d="M13 26c7.18 0 13-5.82 13-13S20.18 0 13 0 0 5.82 0 13s5.82 13 13 13z" fill="#665CAC"/><path d="M14.368 6.158h-2.736a4.79 4.79 0 00-4.79 4.79V13a4.79 4.79 0 002.737 4.33v2.286a.23.23 0 00.388.161l1.988-1.988h2.413A4.79 4.79 0 0019.158 13v-2.053a4.79 4.79 0 00-4.79-4.79zm1.793 8.977l-.684.684c-.729.713-2.631-.101-4.307-1.813-1.677-1.712-2.412-3.633-1.71-4.347l.683-.684a.72.72 0 01.974.01l.999 1.027a.673.673 0 01-.274 1.106.653.653 0 00-.441.787c.17.76 1.135 1.71 1.854 1.897a.684.684 0 00.799-.424.67.67 0 011.12-.24l.997 1.027a.719.719 0 01-.01.97zm-2.538-5.727c-.068 0-.136.004-.204.012a.228.228 0 11-.05-.453 2.284 2.284 0 012.525 2.52.227.227 0 01-.251.201.226.226 0 01-.194-.163.227.227 0 01-.008-.088 1.829 1.829 0 00-1.818-2.029zm1.368 1.825a.23.23 0 01-.383.15.229.229 0 01-.074-.15.912.912 0 00-.911-.912.228.228 0 01-.23-.32.228.228 0 01.23-.136 1.368 1.368 0 011.368 1.368zm1.74.74a.23.23 0 01-.186.19.228.228 0 01-.26-.295A2.737 2.737 0 0013.623 8.5h-.212a.228.228 0 11-.034-.455 3.199 3.199 0 013.354 3.93z" fill="#fff"/></g><defs><clipPath id="clip0_232_5543"><path fill="#fff" d="M0 0h26v26H0z"/></clipPath></defs></svg>