<svg width="26" height="26" fill="none" xmlns="http://www.w3.org/2000/svg"><g clip-path="url(#clip0_232_5538)" fill-rule="evenodd" clip-rule="evenodd" fill="#67D449"><path d="M16.18 15.243c-.135.377-.778.72-1.088.766a2.216 2.216 0 01-1.014-.064 9.373 9.373 0 01-.917-.34c-1.615-.696-2.67-2.322-2.751-2.43-.08-.107-.657-.872-.657-1.664 0-.792.415-1.182.563-1.343a.591.591 0 01.43-.202c.107 0 .214 0 .308.006.1.005.232-.038.362.276.135.323.456 1.115.497 1.195.04.08.067.175.013.282-.054.107-.08.175-.16.27-.081.093-.17.209-.242.281-.08.08-.165.167-.07.328.093.161.416.689.894 1.115.615.549 1.135.718 1.296.8.16.08.255.066.348-.041a9.08 9.08 0 00.51-.631c.108-.161.215-.134.363-.08.147.053.939.442 1.1.523.16.08.268.12.309.188.04.067.04.39-.095.765zm-3.15-7.655a5.363 5.363 0 00-5.36 5.353c0 1.012.284 1.998.82 2.85l.127.202-.54 1.976 2.027-.531.195.115a5.34 5.34 0 002.726.747h.002a5.363 5.363 0 004.952-7.405 5.321 5.321 0 00-1.163-1.737 5.32 5.32 0 00-3.787-1.57z"/><path d="M13.027 19.388h-.003a6.43 6.43 0 01-3.079-.784l-3.417.896.915-3.339a6.424 6.424 0 01-.86-3.22 6.451 6.451 0 018.912-5.954 6.406 6.406 0 012.09 1.402 6.401 6.401 0 011.886 4.557 6.453 6.453 0 01-6.444 6.442zM13 0C5.82 0 0 5.82 0 13s5.82 13 13 13 13-5.82 13-13S20.18 0 13 0z"/></g><defs><clipPath id="clip0_232_5538"><path fill="#fff" d="M0 0h26v26H0z"/></clipPath></defs></svg>